<svg id="Layer_1" data-name="Layer 1" xmlns="http://www.w3.org/2000/svg" viewBox="0 0 506 211.19"><defs><style>.cls-1,.cls-3{fill:none;}.cls-1,.cls-2,.cls-3{stroke:#174895;stroke-miterlimit:10;}.cls-1,.cls-2{stroke-width:1.5px;}.cls-2{fill:#174895;}.cls-3{stroke-width:1.2px;}</style></defs><path class="cls-1" d="M39.45,148.46H72.61a1,1,0,0,1,1,1v32.61a4,4,0,0,1-4,4H42.45a4,4,0,0,1-4-4V149.46A1,1,0,0,1,39.45,148.46Z"/><rect class="cls-1" x="46.24" y="159.16" width="10.85" height="14.06" rx="2"/><path class="cls-1" d="M59.08,148.46a4,4,0,0,0-4.27-2.7,4,4,0,0,0-3.14,2.7v10.7"/><path class="cls-1" d="M38.45,156.25a11.56,11.56,0,0,0-10,10.73,12.11,12.11,0,0,0,1.89,7.47A12.34,12.34,0,0,0,38,179.64"/><path class="cls-1" d="M38.45,161.3a6.71,6.71,0,0,0-3.53,1.75,6.51,6.51,0,0,0-2,4.24,6.76,6.76,0,0,0,1.79,4.84A7.62,7.62,0,0,0,38,174.34"/><path class="cls-1" d="M85.18,187l-52,.09a9.59,9.59,0,0,0-4.72,2.08,10.09,10.09,0,0,0-3,4.71,14.82,14.82,0,0,0-.81,4.3,14,14,0,0,0,2.89,9A13.52,13.52,0,0,0,32,210.84l53.29-.06v-4.24A14.21,14.21,0,0,1,77.83,204a6.38,6.38,0,0,1-2.7-3.76,6.22,6.22,0,0,1,.16-3.4,9.81,9.81,0,0,1,2.87-3.44,10.43,10.43,0,0,1,7.1-1.95Z"/><path class="cls-1" d="M81.86,191.64l-48.47-.24a8.61,8.61,0,0,0-4.82,7.28,7.93,7.93,0,0,0,1.59,5.58,7.36,7.36,0,0,0,2.71,2.1H83.69"/><line class="cls-1" x1="35.45" y1="196.45" x2="75.47" y2="196.45"/><line class="cls-1" x1="35.45" y1="201.83" x2="75.66" y2="201.57"/><circle class="cls-1" cx="328.98" cy="34.75" r="30.23"/><polyline class="cls-1" points="336.11 25.85 344.98 33.75 336.11 42.06"/><polyline class="cls-1" points="321.13 26.46 312.87 33.95 321.13 42.06"/><line class="cls-1" x1="332.75" y1="21.72" x2="324.8" y2="46.79"/><rect class="cls-1" x="127.44" y="14.08" width="91.26" height="101.81" rx="5"/><line class="cls-1" x1="127.44" y1="25.54" x2="218.7" y2="25.54"/><line class="cls-1" x1="139.06" y1="42.51" x2="142.88" y2="42.51"/><line class="cls-1" x1="145.17" y1="42.51" x2="152.05" y2="42.51"/><line class="cls-1" x1="154.5" y1="42.51" x2="159.85" y2="42.51"/><line class="cls-1" x1="163.36" y1="42.51" x2="173.07" y2="42.51"/><line class="cls-1" x1="176.66" y1="42.51" x2="191.03" y2="42.51"/><line class="cls-1" x1="145.17" y1="50.61" x2="157.17" y2="50.61"/><line class="cls-1" x1="161.68" y1="50.61" x2="183.85" y2="50.61"/><line class="cls-1" x1="187.06" y1="50.61" x2="195.47" y2="50.61"/><line class="cls-1" x1="145.17" y1="58.25" x2="154.5" y2="58.25"/><line class="cls-1" x1="157.17" y1="58.25" x2="165.96" y2="58.25"/><line class="cls-1" x1="169.33" y1="58.25" x2="174.37" y2="58.25"/><line class="cls-1" x1="145.17" y1="66.05" x2="164.43" y2="66.05"/><line class="cls-1" x1="167.64" y1="66.05" x2="179.72" y2="66.05"/><line class="cls-1" x1="145.94" y1="73.85" x2="163.36" y2="73.85"/><line class="cls-1" x1="167.03" y1="73.85" x2="191.26" y2="73.85"/><line class="cls-1" x1="145.17" y1="81.64" x2="158.17" y2="81.64"/><line class="cls-1" x1="161.57" y1="81.64" x2="174.37" y2="81.64"/><line class="cls-1" x1="176.66" y1="81.64" x2="183.85" y2="81.64"/><line class="cls-1" x1="145.94" y1="89.29" x2="170.24" y2="89.29"/><line class="cls-1" x1="145.94" y1="97.54" x2="156.49" y2="97.54"/><line class="cls-1" x1="139.06" y1="50.61" x2="142.88" y2="50.61"/><line class="cls-1" x1="139.06" y1="58.25" x2="142.88" y2="58.25"/><line class="cls-1" x1="139.06" y1="66.36" x2="142.88" y2="66.36"/><line class="cls-1" x1="139.06" y1="73.85" x2="142.88" y2="73.85"/><line class="cls-1" x1="139.06" y1="81.95" x2="142.88" y2="81.95"/><line class="cls-1" x1="139.06" y1="89.59" x2="142.88" y2="89.59"/><line class="cls-1" x1="139.06" y1="97.69" x2="142.88" y2="97.69"/><rect class="cls-1" x="304.31" y="75.22" width="107.46" height="91.87" rx="7"/><rect class="cls-1" x="323.26" y="101.82" width="12.76" height="12.76" rx="3"/><rect class="cls-1" x="323.26" y="119.94" width="12.76" height="12.76" rx="3"/><rect class="cls-1" x="323.26" y="138.05" width="12.76" height="12.76" rx="3"/><line class="cls-1" x1="304.31" y1="86.69" x2="411.77" y2="86.69"/><circle class="cls-2" cx="136.92" cy="19.87" r="0.86"/><circle class="cls-2" cx="143.06" cy="19.87" r="0.86"/><circle class="cls-2" cx="148.78" cy="19.87" r="0.86"/><circle class="cls-2" cx="312.94" cy="81.34" r="0.86"/><circle class="cls-2" cx="319.08" cy="81.34" r="0.86"/><circle class="cls-2" cx="324.8" cy="81.34" r="0.86"/><path class="cls-1" d="M127.44,38.38H92.57a4.7,4.7,0,0,0-3.35,1.45,4.55,4.55,0,0,0-1.14,2.62V176a3.82,3.82,0,0,0,1.14,2.6,4.07,4.07,0,0,0,2.91.84H232.46"/><path class="cls-1" d="M127.44,50.61H102.06a2.25,2.25,0,0,0-1.92,2.52q0,47.5,0,95a3.86,3.86,0,0,0,.69,2.52,3.94,3.94,0,0,0,3,1.53H233.53"/><path class="cls-1" d="M218.7,38.38h66.53A3.67,3.67,0,0,1,288.64,42v61.84"/><path class="cls-1" d="M218.7,50.61h55.43A2.47,2.47,0,0,1,276.71,53v50.83"/><path class="cls-1" d="M304.31,103.81H236.16a2.3,2.3,0,0,0-1.71.69,2.35,2.35,0,0,0-.61,2V201H378.52V167.1"/><path class="cls-1" d="M371,167.1v23.17a2.94,2.94,0,0,1-2.29,2.74H242.09a2.66,2.66,0,0,1-2.14-1,2.41,2.41,0,0,1-.43-1.53l0-72.3a3.39,3.39,0,0,1,.84-2.6,3.27,3.27,0,0,1,2-1h61.91"/><path class="cls-1" d="M223.06,202.18a9.12,9.12,0,0,0,.92,4.89,9.24,9.24,0,0,0,4.16,4.12H383.31a15.6,15.6,0,0,0,2.32-2.59,16.38,16.38,0,0,0,2.75-6.42H223.06Z"/><path class="cls-1" d="M297.12,205.77a3.32,3.32,0,0,0,1.29.42h14.15a4,4,0,0,0,1.22-.5,3.8,3.8,0,0,0,.85-.68l2-2.83H294.14l2.24,3A3.81,3.81,0,0,0,297.12,205.77Z"/><line class="cls-1" x1="174.37" y1="179.48" x2="172.77" y2="204.01"/><line class="cls-1" x1="203.34" y1="179.48" x2="204.94" y2="204.01"/><path class="cls-1" d="M160.84,206.38a7.38,7.38,0,0,1,2.27-2.37l51.54.08a8.14,8.14,0,0,1,2,2.29,8.33,8.33,0,0,1,1.06,4.81H159.92A7.47,7.47,0,0,1,160.84,206.38Z"/><circle class="cls-1" cx="189.31" cy="166.87" r="3.26"/><polygon class="cls-1" points="366.37 143.96 366.37 140.75 375.77 140.75 375.77 144.13 366.37 143.96"/><polygon class="cls-1" points="366.37 138.86 375.77 138.86 378.87 130.14 372.85 112.95 371.82 112.95 371.82 128.42 370.61 128.37 370.84 112.95 369.64 112.95 363.16 129.58 366.37 138.86"/><path class="cls-1" d="M349.8,128.69a22.48,22.48,0,0,1,3.89-12c.76-1.1,6.75-9.44,17.38-9.46,10.18,0,16.1,7.61,16.88,8.66a22.2,22.2,0,0,1,4.33,12.84"/><rect class="cls-1" x="348.54" y="127.32" width="2.18" height="2.18"/><rect class="cls-1" x="391.19" y="127.32" width="2.18" height="2.18"/><rect class="cls-1" x="369.98" y="106.11" width="2.18" height="2.18"/><line class="cls-1" x1="356.17" y1="107.19" x2="385" y2="107.19"/><circle class="cls-1" cx="355.71" cy="107.29" r="0.5"/><circle class="cls-1" cx="385" cy="107.19" r="0.5"/><circle class="cls-1" cx="371.07" cy="128.36" r="1.22"/><path class="cls-1" d="M98.86,211a14.45,14.45,0,0,1,2.51-7.79c.49-.71,4.36-6.1,11.24-6.11,6.58,0,10.41,4.92,10.92,5.59a14.48,14.48,0,0,1,2.8,8.31Z"/><rect class="cls-1" x="112.59" y="197.9" width="0.02" height="2.16"/><polygon class="cls-1" points="436.85 134.7 439.54 135.36 445.48 141.15 445.06 147.28 480.74 193.33 486.69 194.36 490.93 201.4 490.77 204.42 485.44 197.75 479.31 199.19 476.86 204.15 481.85 211.01 478.92 210.86 473.09 204.9 473.63 198.84 437.88 152.68 431.91 151.74 427.77 145.04 427.93 141.6 433.22 148.23 439.22 147.13 441.8 141.82 436.85 134.7"/><polygon class="cls-1" points="406.23 189.88 408.93 189.88 409.81 188.28 408.42 185.79 410.83 182.94 413.17 184.55 414.49 183.53 414.49 180.75 417.85 179.58 419.38 181.92 420.99 181.92 422.53 179.58 425.81 180.02 426.18 182.94 427.57 183.82 429.91 182.21 432.61 184.4 431.37 186.96 432.61 188.72 435.39 188.35 436.19 191.49 433.85 193.32 433.85 194.85 436.19 196.24 435.75 199.46 432.98 200.09 431.95 201.72 433.63 203.62 431.22 206.4 428.96 205.23 427.57 205.96 427.5 208.96 424.13 210.06 422.75 207.72 421.21 207.72 419.6 210.42 416.09 209.47 415.88 206.99 414.19 206.04 412.06 207.64 409.3 205.23 410.69 202.75 409.66 201.21 406.89 201.28 405.79 198 408.27 196.32 408.27 194.63 405.42 193.32 406.23 189.88"/><circle class="cls-1" cx="420.99" cy="194.93" r="6.29"/><polygon class="cls-1" points="424.64 167.13 426.49 167.13 427.09 166.03 426.14 164.32 427.8 162.37 429.4 163.47 430.3 162.77 430.3 160.87 432.6 160.07 433.65 161.67 434.75 161.67 435.81 160.07 438.06 160.37 438.31 162.37 439.26 162.97 440.86 161.87 442.71 163.37 441.86 165.13 442.71 166.33 444.62 166.08 445.17 168.23 443.56 169.48 443.56 170.53 445.17 171.48 444.87 173.69 442.96 174.12 442.26 175.24 443.41 176.54 441.76 178.44 440.21 177.64 439.26 178.14 439.21 180.19 436.91 180.94 435.95 179.34 434.9 179.34 433.8 181.19 431.4 180.54 431.25 178.84 430.1 178.19 428.63 179.29 426.74 177.64 427.69 175.94 426.99 174.89 425.09 174.94 424.34 172.69 426.04 171.53 426.04 170.38 424.09 169.48 424.64 167.13"/><circle class="cls-1" cx="434.75" cy="170.58" r="4.31"/><polygon class="cls-3" points="392.8 180.12 394.09 180.12 394.51 179.35 393.85 178.16 395 176.8 396.12 177.57 396.75 177.08 396.75 175.75 398.35 175.19 399.09 176.31 399.86 176.31 400.59 175.19 402.17 175.4 402.34 176.8 403 177.22 404.12 176.45 405.42 177.5 404.82 178.72 405.42 179.56 406.75 179.38 407.13 180.89 406.01 181.76 406.01 182.5 407.13 183.16 406.92 184.7 405.59 185 405.1 185.78 405.91 186.69 404.75 188.02 403.67 187.46 403 187.81 402.97 189.24 401.36 189.77 400.7 188.65 399.96 188.65 399.19 189.94 397.51 189.49 397.41 188.3 396.61 187.84 395.58 188.61 394.26 187.46 394.93 186.27 394.44 185.54 393.11 185.57 392.59 184 393.77 183.19 393.77 182.39 392.41 181.76 392.8 180.12"/><circle class="cls-3" cx="399.86" cy="182.53" r="3.01"/></svg>