<svg id="Layer_1" data-name="Layer 1" xmlns="http://www.w3.org/2000/svg" viewBox="0 0 50 50"><defs><style>.cls-1{fill:#fff;}</style></defs><path class="cls-1" d="M24,3.54C23,3.47,22,4.8,21.64,5.21a5.78,5.78,0,0,0-.72,1.2Q16.13,17.5,11.45,29.3q-3.19,8.08-6.13,16a.57.57,0,0,0-.14.72A.58.58,0,0,0,6,45.91a129.11,129.11,0,0,0,13.31-5.8c3.64-1.83,7-3.72,10-5.58a.78.78,0,0,1,.49,0,.85.85,0,0,1,.47.37l2.82,5.46c-1.22.76-2.52,1.51-3.88,2.26C26.5,44,23.91,45.27,21.47,46.3c1.94,0,3.65,0,5,0,4.46.07,8.93,0,13.39.12,2.83.07,4.28.15,4.81-.75s-.41-2.52-1.47-4.38C40.2,35.93,37,27.68,34.61,25a2.71,2.71,0,0,0-1.84-1,2,2,0,0,0-1.15.41c-1.1.77-7.1,4.43-15.43,9.48C16.74,33.21,29.1,18,30.58,15.42a3,3,0,0,0,.45-1.5c0-1.05-.66-1.77-1.69-3.07,0,0-.9-1.15-2-2.73C25.16,5.12,25.06,3.61,24,3.54Z"/></svg>