<svg id="Layer_1" data-name="Layer 1" xmlns="http://www.w3.org/2000/svg" viewBox="0 0 50 50"><defs><style>.cls-1{fill:#6fccdd;}</style></defs><path class="cls-1" d="M23,2.1C22,2,21,3.36,20.65,3.78A5.13,5.13,0,0,0,19.93,5q-4.8,11.1-9.47,22.89-3.21,8.09-6.13,16a.54.54,0,0,0-.14.72A.57.57,0,0,0,5,44.47a127.87,127.87,0,0,0,13.3-5.79c3.64-1.84,7-3.73,10-5.59a.74.74,0,0,1,.48,0,.78.78,0,0,1,.47.37l2.83,5.46c-1.23.76-2.52,1.52-3.89,2.26-2.68,1.47-5.27,2.69-7.71,3.73,2,0,3.65,0,5.05,0,4.46.07,8.92,0,13.38.11,2.84.07,4.28.15,4.82-.74s-.42-2.53-1.47-4.39c-3-5.36-6.23-13.61-8.64-16.26a2.64,2.64,0,0,0-1.84-1,2.08,2.08,0,0,0-1.15.4c-1.1.77-7.1,4.43-15.43,9.48.56-.68,12.91-15.86,14.4-18.47A3,3,0,0,0,30,12.49c0-1.06-.65-1.78-1.68-3.08,0,0-.9-1.15-2-2.73C24.17,3.68,24.07,2.17,23,2.1Z"/></svg>