<svg id="Layer_1" data-name="Layer 1" xmlns="http://www.w3.org/2000/svg" viewBox="0 0 50 50"><defs><style>.cls-1{fill:none;}.cls-1,.cls-2{stroke:#194895;stroke-miterlimit:10;stroke-width:2px;}.cls-2{fill:#fff;}</style></defs><polyline class="cls-1" points="26.5 18.76 30.13 15.19 34.64 19.83 31.43 23.1"/><polyline class="cls-1" points="23.07 31.61 19.32 35.42 14.61 30.43 18.76 26.36"/><path class="cls-1" d="M36,20.43l-6.1-6.1,2.22-9.07L40.6,3.11,36.1,7.54A4.94,4.94,0,0,0,35.89,10a5.19,5.19,0,0,0,3.74,4A5,5,0,0,0,42,14l4.89-4.54-2.11,8.3Z"/><path class="cls-1" d="M13.5,30.19l6.1,6.1-2.22,9.08L8.86,47.52l4.5-4.44a4.89,4.89,0,0,0,.21-2.42,5.15,5.15,0,0,0-3.74-4,5,5,0,0,0-2.36,0L2.58,41.17l2.11-8.3Z"/><path class="cls-1" d="M2.56,4.56,4.49,2.38l5,3.31L7.85,7.33l-2,2Z"/><line class="cls-1" x1="19.86" y1="19.87" x2="7.63" y2="7.55"/><rect class="cls-2" x="22.6" y="30.76" width="25.3" height="9.33" rx="0.12" transform="translate(35.37 -14.55) rotate(45)"/><rect class="cls-2" x="22.97" y="22.02" width="3.34" height="5.58" rx="0.05" transform="translate(24.76 -10.15) rotate(45)"/><rect class="cls-2" x="19.99" y="20" width="3.34" height="3.46" rx="0.05" transform="translate(21.71 -8.95) rotate(45)"/><line class="cls-1" x1="28.31" y1="28.59" x2="44.15" y2="44"/></svg>