<svg xmlns="http://www.w3.org/2000/svg" viewBox="0 0 80 80"><defs><style>.cls-1{fill:#174895;stroke:#174895;}.cls-1,.cls-2{stroke-miterlimit:10;stroke-width:1.5px;}.cls-2{fill:#164f9d;stroke:#164f9d;}.cls-3{fill:#fff;}</style></defs><g id="Layer_1" data-name="Layer 1"><rect class="cls-1" width="80" height="80"/><rect class="cls-2" y="44.91" width="80" height="35.09"/><path class="cls-3" d="M30,59.79c-2.81-.07-7.7-1.24-7.7-6.75,0-3.23.27-5.76.27-8.69,0-2.51-.88-4.54-5.47-4.87V37.87C21.7,37.59,22.58,36,22.58,33s-.27-4.68-.27-7.57c0-5.51,4.7-6.82,7.7-7l0,1.44c-3.57.64-4.19,2.65-4.19,4.94,0,2.89.32,4.6.32,7.37a6.47,6.47,0,0,1-5.35,6.36v.18a6.41,6.41,0,0,1,5.35,6.42c0,2.88-.32,5.35-.32,8.09,0,2.48.73,4.46,4.19,5.09Z"/><path class="cls-3" d="M36,54.5H33.37L45.65,20.78h2.74Z"/><path class="cls-3" d="M52.92,18.47c2.85,0,7.74,1.24,7.74,6.7,0,3.28-.31,5-.31,7.94,0,2.47.95,4.63,5.51,4.84v1.6c-4.46.32-5.51,2-5.51,4.9s.31,5.39.31,8.28c0,5.5-4.78,7-7.74,7.06V58.35c3.53-.64,4.19-2.56,4.19-5,0-2.89-.36-5.36-.36-8.12a6.56,6.56,0,0,1,5.35-6.41v-.18a6.61,6.61,0,0,1-5.35-6.38c0-2.62.36-4.59.36-7.33,0-2.55-.74-4.43-4.19-5.05Z"/></g></svg>