<svg xmlns="http://www.w3.org/2000/svg" viewBox="0 0 80 80"><defs><style>.cls-1{fill:#174895;stroke:#174895;}.cls-1,.cls-2,.cls-3,.cls-4{stroke-miterlimit:10;}.cls-1,.cls-2{stroke-width:1.5px;}.cls-2{fill:#164f9d;stroke:#164f9d;}.cls-3,.cls-5{fill:#fff;}.cls-3,.cls-4{stroke:#fff;stroke-width:2px;}.cls-3{stroke-linecap:round;}.cls-4{fill:none;}</style></defs><g id="Layer_2" data-name="Layer 2"><rect class="cls-1" width="80" height="80"/><rect class="cls-2" y="44.91" width="80" height="35.09"/></g><g id="Layer_1" data-name="Layer 1"><line class="cls-3" x1="59.66" y1="33.45" x2="64" y2="29.34"/><line class="cls-3" x1="59.66" y1="38.25" x2="64.57" y2="38.25"/><line class="cls-3" x1="59.66" y1="43.27" x2="64.57" y2="47.5"/><line class="cls-3" x1="16.08" y1="29.34" x2="20.42" y2="33.45"/><line class="cls-3" x1="15.63" y1="38.25" x2="20.42" y2="38.25"/><line class="cls-3" x1="16.08" y1="47.5" x2="20.42" y2="43.27"/><rect class="cls-4" x="24.71" y="16.09" width="30.77" height="47.56" rx="2"/><path class="cls-5" d="M40.1,20.74a7.17,7.17,0,1,0,7.16,7.16A7.17,7.17,0,0,0,40.1,20.74Zm0,11.71A4.43,4.43,0,1,1,44.52,28,4.42,4.42,0,0,1,40.1,32.45Z"/><circle class="cls-5" cx="40.1" cy="27.9" r="1.44"/><path class="cls-5" d="M40.1,38.89A10.27,10.27,0,1,0,50.36,49.15,10.26,10.26,0,0,0,40.1,38.89Zm0,17.35a7.09,7.09,0,1,1,7.09-7.09A7.08,7.08,0,0,1,40.1,56.24Z"/><path class="cls-5" d="M40.1,44.74a4.41,4.41,0,1,0,4.41,4.41A4.41,4.41,0,0,0,40.1,44.74Zm0,5.72a1.31,1.31,0,1,1,0-2.61,1.31,1.31,0,0,1,0,2.61Z"/></g></svg>