<svg xmlns="http://www.w3.org/2000/svg" viewBox="0 0 80 80"><defs><style>.cls-1{fill:#174895;stroke:#174895;}.cls-1,.cls-2,.cls-3,.cls-4{stroke-miterlimit:10;stroke-width:1.5px;}.cls-2{fill:#164f9d;stroke:#164f9d;}.cls-3{fill:none;}.cls-3,.cls-4{stroke:#fff;}.cls-4{fill:#fff;}</style></defs><g id="Layer_2" data-name="Layer 2"><rect class="cls-1" width="80" height="80"/><rect class="cls-2" y="44.91" width="80" height="35.09"/></g><g id="Layer_1" data-name="Layer 1"><polygon class="cls-3" points="34.91 61.23 34.91 57.55 45.7 57.55 45.7 61.43 34.91 61.23"/><polygon class="cls-3" points="34.91 55.38 45.7 55.38 49.26 45.38 42.35 25.64 41.16 25.64 41.16 43.4 39.78 43.34 40.04 25.64 38.66 25.64 31.23 44.73 34.91 55.38"/><path class="cls-3" d="M15.9,43.71a25.75,25.75,0,0,1,4.46-13.82c.87-1.26,7.74-10.84,20-10.85C52,19,58.79,27.77,59.68,29a25.43,25.43,0,0,1,5,14.74"/><rect class="cls-4" x="14.45" y="42.13" width="2.5" height="2.5"/><rect class="cls-4" x="63.4" y="42.13" width="2.5" height="2.5"/><rect class="cls-4" x="39.06" y="17.79" width="2.5" height="2.5"/><line class="cls-3" x1="23.2" y1="19.04" x2="56.3" y2="19.04"/><circle class="cls-3" cx="22.67" cy="19.15" r="0.58"/><circle class="cls-3" cx="56.3" cy="19.04" r="0.58"/><circle class="cls-4" cx="40.31" cy="43.33" r="1.4"/></g></svg>