<svg xmlns="http://www.w3.org/2000/svg" xmlns:xlink="http://www.w3.org/1999/xlink" viewBox="0 0 290 180"><defs><style>.cls-1{fill:url(#radial-gradient);}.cls-2{fill:#006274;}.cls-3{fill:#9f00c9;fill-opacity:0.46;}</style><radialGradient id="radial-gradient" cx="145" cy="90.37" r="169.23" gradientUnits="userSpaceOnUse"><stop offset="0" stop-color="#f7f7f7" stop-opacity="0"/><stop offset="1" stop-color="#b7b8ba"/></radialGradient></defs><g id="Layer_3" data-name="Layer 3"><rect class="cls-1" y="0.74" width="290" height="179.26"/><image width="1812" height="1200" transform="translate(37.6 18.73) scale(0.12)" xlink:href="../experiences/Inspired%20Kartes%20Gravity%20Logo.png"/><polygon class="cls-2" points="0 171.82 34.08 150.27 55.17 161.27 69.16 153.25 75.81 156 112.96 168.16 136.81 155.09 171.2 168.39 178.08 159.44 190.23 154.17 220.73 164.49 227.84 156.23 247.56 161.05 261.31 168.39 278.74 155.54 290 163.57 290 180 0 180 0 171.82"/><polygon class="cls-3" points="0 175.49 14.13 157.38 37.6 167.7 60.91 155.77 80.63 169.76 95.53 155.77 157.67 170.22 185.19 161.05 198.03 165.63 213.16 155.77 228.3 159.9 251 171.37 251 156.92 274.38 166.78 290 172.74 290 180 0 180 0 175.49"/></g></svg>